<svg xmlns="http://www.w3.org/2000/svg" width="96" height="92" viewBox="0 0 96 92">
  <defs>
    <style>
      .cls-1 {
        fill: #1b1b1b;
        fill-rule: evenodd;
      }
    </style>
  </defs>
  <path id="_10_LS.svg" data-name="10_LS.svg" class="cls-1" d="M958,658H942v10h-4V658h-2a2,2,0,0,1-2-2V638a2,2,0,0,1,2-2h2V618h4v18h4V616c0-2.513-1.549-4.933-4.362-6.815a22.855,22.855,0,0,0-23.276,0c-2.813,1.882-4.362,4.3-4.362,6.815v16c0,2.241.52,6,4,6V618h4v50h-4V642c-4.935,0-8-3.832-8-10V616c0-3.891,2.18-7.492,6.138-10.14a26.821,26.821,0,0,1,27.724,0C947.82,608.508,950,612.109,950,616v20h8a2,2,0,0,1,2,2v18A2,2,0,0,1,958,658Zm-2-18H938v14h18V640Zm-26-40a9.672,9.672,0,0,1-10-10v-4a10,10,0,0,1,20,0v4A9.672,9.672,0,0,1,930,600Zm6-14a6,6,0,0,0-12,0v4a6,6,0,0,0,12,0v-4Zm-50.588,55.121A80.083,80.083,0,0,0,896,647.815a80.051,80.051,0,0,0,10.762-6.825l2.413,3.19c-5.192,3.926-11.522,7.482-12.712,7.766a2.012,2.012,0,0,1-.926,0c-1.13-.269-7.044-3.56-12.163-7.355C875.827,639,872,633.952,872,629.6V610a2,2,0,0,1,1.729-1.981c7.658-1.049,18.576-5.9,21.135-7.665a2,2,0,0,1,2.272,0,61.683,61.683,0,0,0,11.513,5.162l-1.318,3.776A76.374,76.374,0,0,1,896,604.352a76.39,76.39,0,0,1-20,7.346v17.9C876,632.429,879.431,636.628,885.412,641.121ZM896,592.618c-5.35,4.035-18.574,9.971-28,11.338V632c0,4.788,4.6,10.672,13.292,17.017A98.315,98.315,0,0,0,896,657.841a97.017,97.017,0,0,0,16.514-10.184l2.451,3.161c-8.126,6.3-17.258,10.8-18.455,11.115a2,2,0,0,1-1.026,0c-1.244-.33-8.987-4.214-16.253-9.467C869.126,645.156,864,638.271,864,632V602.174a2,2,0,0,1,1.836-1.994c9.846-.807,25.522-8.367,28.75-11.594a2,2,0,0,1,2.828,0c2.263,2.263,10.649,6.691,19.065,9.428l-1.237,3.8C907.915,599.435,899.907,595.566,896,592.618ZM930,668h-4V640h4v28Z" transform="translate(-864 -576)"/>
</svg>

